<svg width="35" height="35" viewBox="0 0 35 35" fill="none" xmlns="http://www.w3.org/2000/svg">
<path fill-rule="evenodd" clip-rule="evenodd" d="M17.5 0C7.83502 0 0 7.83502 0 17.5C0 27.165 7.83502 35 17.5 35C27.165 35 35 27.165 35 17.5C35 7.83502 27.165 0 17.5 0ZM17.0126 14.8298L16.9759 14.2242C16.8657 12.6548 17.8327 11.2213 19.3628 10.6652C19.9259 10.4674 20.8807 10.4427 21.505 10.6157C21.7498 10.6899 22.215 10.937 22.5455 11.1595L23.1453 11.5673L23.8063 11.3572C24.1735 11.246 24.6632 11.0606 24.8835 10.937C25.0916 10.8258 25.2752 10.764 25.2752 10.8011C25.2752 11.0112 24.8223 11.7279 24.4428 12.1234C23.9287 12.6795 24.0756 12.7289 25.1161 12.3582C25.7404 12.1481 25.7526 12.1481 25.6302 12.3829C25.5567 12.5065 25.1773 12.939 24.7733 13.3345C24.0878 14.0142 24.0511 14.0883 24.0511 14.6568C24.0511 15.5342 23.6349 17.3632 23.2187 18.3642C22.4476 20.2426 20.795 22.1828 19.1425 23.159C16.8167 24.5308 13.7198 24.8768 11.1125 24.0735C10.2434 23.8017 8.75 23.1096 8.75 22.986C8.75 22.949 9.20291 22.8995 9.75375 22.8872C10.9044 22.8624 12.055 22.5411 13.0343 21.9727L13.6953 21.5772L12.9364 21.3177C11.8592 20.947 10.8922 20.0943 10.6473 19.291C10.5739 19.0315 10.5984 19.0191 11.2839 19.0191L11.9938 19.0068L11.394 18.7225C10.6841 18.3642 10.0353 17.7586 9.71703 17.1407C9.48445 16.6958 9.19067 15.5713 9.27636 15.4848C9.30084 15.4477 9.5579 15.5218 9.85168 15.6207C10.6963 15.9296 10.8065 15.8555 10.3168 15.3365C9.39877 14.3973 9.11723 13.0008 9.5579 11.6785L9.76599 11.0853L10.5739 11.8886C12.2264 13.5075 14.1727 14.4714 16.4006 14.7556L17.0126 14.8298Z" fill="black"/>
</svg>
