<svg width="1694" height="1050" viewBox="0 0 1694 1050" fill="none" xmlns="http://www.w3.org/2000/svg">
<path d="M0 0H1694V1030C1694 1041.05 1685.05 1050 1674 1050H20C8.95429 1050 0 1041.05 0 1030V0Z" fill="white"/>
<rect x="46" y="25" width="225" height="243" rx="30" fill="#EDF3F6"/>
<rect x="46" y="284" width="184" height="14" rx="7" fill="#EDF3F6"/>
<rect x="46" y="313" width="137" height="14" rx="7" fill="#EDF3F6"/>
<rect x="46" y="691" width="225" height="243" rx="30" fill="#EDF3F6"/>
<rect x="46" y="950" width="184" height="14" rx="7" fill="#EDF3F6"/>
<rect x="46" y="979" width="137" height="14" rx="7" fill="#EDF3F6"/>
<rect x="46" y="358" width="225" height="243" rx="30" fill="#EDF3F6"/>
<rect x="46" y="617" width="184" height="14" rx="7" fill="#EDF3F6"/>
<rect x="46" y="646" width="137" height="14" rx="7" fill="#EDF3F6"/>
<rect x="319" y="358" width="225" height="243" rx="30" fill="#EDF3F6"/>
<rect x="319" y="617" width="184" height="14" rx="7" fill="#EDF3F6"/>
<rect x="319" y="646" width="137" height="14" rx="7" fill="#EDF3F6"/>
<rect x="319" y="25" width="225" height="243" rx="30" fill="#EDF3F6"/>
<rect x="319" y="284" width="184" height="14" rx="7" fill="#EDF3F6"/>
<rect x="319" y="313" width="137" height="14" rx="7" fill="#EDF3F6"/>
<rect x="319" y="25" width="225" height="243" rx="30" fill="#EDF3F6"/>
<rect x="319" y="284" width="184" height="14" rx="7" fill="#EDF3F6"/>
<rect x="319" y="313" width="137" height="14" rx="7" fill="#EDF3F6"/>
<rect x="592" y="25" width="225" height="243" rx="30" fill="#EDF3F6"/>
<rect x="592" y="284" width="184" height="14" rx="7" fill="#EDF3F6"/>
<rect x="592" y="313" width="137" height="14" rx="7" fill="#EDF3F6"/>
<rect x="592" y="358" width="225" height="243" rx="30" fill="#EDF3F6"/>
<rect x="592" y="617" width="184" height="14" rx="7" fill="#EDF3F6"/>
<rect x="592" y="646" width="137" height="14" rx="7" fill="#EDF3F6"/>
<rect x="865" y="25" width="225" height="243" rx="30" fill="#EDF3F6"/>
<rect x="865" y="284" width="184" height="14" rx="7" fill="#EDF3F6"/>
<rect x="865" y="313" width="137" height="14" rx="7" fill="#EDF3F6"/>
<rect x="1138" y="25" width="225" height="243" rx="30" fill="#EDF3F6"/>
<rect x="1138" y="284" width="184" height="14" rx="7" fill="#EDF3F6"/>
<rect x="1138" y="313" width="137" height="14" rx="7" fill="#EDF3F6"/>
<rect x="1411" y="22" width="225" height="243" rx="30" fill="#EDF3F6"/>
<rect x="1411" y="281" width="184" height="14" rx="7" fill="#EDF3F6"/>
<rect x="1411" y="310" width="137" height="14" rx="7" fill="#EDF3F6"/>
<rect x="865" y="355" width="225" height="243" rx="30" fill="#EDF3F6"/>
<rect x="865" y="614" width="184" height="14" rx="7" fill="#EDF3F6"/>
<rect x="865" y="643" width="137" height="14" rx="7" fill="#EDF3F6"/>
<rect x="1138" y="355" width="225" height="243" rx="30" fill="#EDF3F6"/>
<rect x="1138" y="614" width="184" height="14" rx="7" fill="#EDF3F6"/>
<rect x="1138" y="643" width="137" height="14" rx="7" fill="#EDF3F6"/>
<rect x="1411" y="352" width="225" height="243" rx="30" fill="#EDF3F6"/>
<rect x="1411" y="611" width="184" height="14" rx="7" fill="#EDF3F6"/>
<rect x="1411" y="640" width="137" height="14" rx="7" fill="#EDF3F6"/>
<rect x="319" y="691" width="225" height="243" rx="30" fill="#EDF3F6"/>
<rect x="319" y="950" width="184" height="14" rx="7" fill="#EDF3F6"/>
<rect x="319" y="979" width="137" height="14" rx="7" fill="#EDF3F6"/>
<rect x="592" y="691" width="225" height="243" rx="30" fill="#EDF3F6"/>
<rect x="592" y="950" width="184" height="14" rx="7" fill="#EDF3F6"/>
<rect x="592" y="979" width="137" height="14" rx="7" fill="#EDF3F6"/>
<rect x="865" y="688" width="225" height="243" rx="30" fill="#EDF3F6"/>
<rect x="865" y="947" width="184" height="14" rx="7" fill="#EDF3F6"/>
<rect x="865" y="976" width="137" height="14" rx="7" fill="#EDF3F6"/>
<rect x="1138" y="688" width="225" height="243" rx="30" fill="#EDF3F6"/>
<rect x="1138" y="947" width="184" height="14" rx="7" fill="#EDF3F6"/>
<rect x="1138" y="976" width="137" height="14" rx="7" fill="#EDF3F6"/>
<rect x="1411" y="685" width="225" height="243" rx="30" fill="#EDF3F6"/>
<rect x="1411" y="944" width="184" height="14" rx="7" fill="#EDF3F6"/>
<rect x="1411" y="973" width="137" height="14" rx="7" fill="#EDF3F6"/>
</svg>
