<svg width="25" height="25" viewBox="0 0 25 25" fill="none" xmlns="http://www.w3.org/2000/svg">
<path fill-rule="evenodd" clip-rule="evenodd" d="M17.493 9.80256C17.493 13.5677 14.4519 16.6051 10.7188 16.6051C6.98574 16.6051 3.94464 13.5677 3.94464 9.80256C3.94464 6.0374 6.98574 3 10.7188 3C14.4519 3 17.493 6.0374 17.493 9.80256ZM15.9586 18.079C14.4442 19.0453 12.6467 19.6051 10.7188 19.6051C5.32068 19.6051 0.944641 15.2164 0.944641 9.80256C0.944641 4.38876 5.32068 0 10.7188 0C16.1169 0 20.493 4.38876 20.493 9.80256C20.493 12.1971 19.6368 14.3912 18.2148 16.0936L24.429 22.3511L22.315 24.4797L15.9586 18.079Z" fill="black"/>
</svg>
